<svg width="24" height="28" viewBox="0 0 24 28" xmlns="http://www.w3.org/2000/svg">
<path fill-rule="evenodd" clip-rule="evenodd" d="M18 8V10H6V8C6 4.68629 8.68629 2 12 2C15.3137 2 18 4.68629 18 8ZM4 10V8C4 3.58172 7.58172 0 12 0C16.4183 0 20 3.58172 20 8V10H21C22.6569 10 24 11.3431 24 13V25C24 26.6569 22.6569 28 21 28H3C1.34315 28 0 26.6569 0 25V13C0 11.3431 1.34315 10 3 10H4ZM12 15C11.4477 15 11 15.4477 11 16V18.2676C10.4022 18.6134 10 19.2597 10 20C10 21.1046 10.8954 22 12 22C13.1046 22 14 21.1046 14 20C14 19.2597 13.5978 18.6134 13 18.2676V16C13 15.4477 12.5523 15 12 15Z"/>
</svg>
